<?xml version="1.0" encoding="UTF-8" standalone="no"?>
<!-- Created with Inkscape (http://www.inkscape.org/) -->

<svg
   xmlns:dc="http://purl.org/dc/elements/1.1/"
   xmlns:cc="http://creativecommons.org/ns#"
   xmlns:rdf="http://www.w3.org/1999/02/22-rdf-syntax-ns#"
   xmlns:svg="http://www.w3.org/2000/svg"
   xmlns="http://www.w3.org/2000/svg"
   xmlns:sodipodi="http://sodipodi.sourceforge.net/DTD/sodipodi-0.dtd"
   xmlns:inkscape="http://www.inkscape.org/namespaces/inkscape"
   width="85.704102mm"
   height="69.280884mm"
   viewBox="0 0 85.704102 69.280884"
   version="1.1"
   id="svg8"
   inkscape:version="0.92.4 (5da689c313, 2019-01-14)"
   sodipodi:docname="scissors.svg">
  <defs
     id="defs2" />
  <sodipodi:namedview
     id="base"
     pagecolor="#ffffff"
     bordercolor="#666666"
     borderopacity="1.0"
     inkscape:pageopacity="0.0"
     inkscape:pageshadow="2"
     inkscape:zoom="1.979899"
     inkscape:cx="-447.98168"
     inkscape:cy="-19.69474"
     inkscape:document-units="mm"
     inkscape:current-layer="layer1"
     showgrid="false"
     fit-margin-top="0"
     fit-margin-left="0"
     fit-margin-right="0"
     fit-margin-bottom="0"
     showguides="true"
     inkscape:guide-bbox="true"
     inkscape:window-width="3840"
     inkscape:window-height="2107"
     inkscape:window-x="-8"
     inkscape:window-y="-8"
     inkscape:window-maximized="1">
    <sodipodi:guide
       position="-2.8991874,84.434635"
       orientation="1,0"
       id="guide8463"
       inkscape:locked="false" />
  </sodipodi:namedview>
  <metadata
     id="metadata5">
    <rdf:RDF>
      <cc:Work
         rdf:about="">
        <dc:format>image/svg+xml</dc:format>
        <dc:type
           rdf:resource="http://purl.org/dc/dcmitype/StillImage" />
        <dc:title></dc:title>
      </cc:Work>
    </rdf:RDF>
  </metadata>
  <g
     inkscape:label="Layer 1"
     inkscape:groupmode="layer"
     id="layer1"
     transform="translate(-177.4718,-7.603377)">
    <path
       style="fill:#000000;stroke-width:0.99999994"
       d="m 203.57736,76.110843 c -2.11113,-0.79866 -3.22322,-1.64124 -3.63299,-2.75252 -0.10049,-0.27252 -0.73986,0.11771 -1.70352,1.03973 -0.84846,0.81178 -1.9443,1.57429 -2.43519,1.69446 -1.36095,0.33313 -6.61035,-1.44683 -7.81263,-2.64911 -0.54793,-0.54793 -0.99623,-1.24657 -0.99623,-1.55254 0,-0.395 -0.34008,-0.5563 -1.17293,-0.5563 -0.98492,0 -4.20989,-0.93814 -6.68942,-1.94594 -1.0783,-0.43827 -1.66265,-2.09587 -1.66265,-4.71635 0,-1.3552 0.16614,-2.9109 0.36921,-3.45711 0.20306,-0.5462 6.01667,-6.64877 12.91912,-13.56126 l 12.54991,-12.56817 -1.54204,-0.51181 c -2.26337,-0.75123 -3.12953,-2.20402 -3.12953,-5.24912 0,-1.31687 0.1665,-2.84121 0.37,-3.38741 0.42408,-1.13826 10.96268,-11.89619 12.40067,-12.65876 0.76041,-0.40325 2.92126,-0.50518 10.70913,-0.50518 h 9.75651 l 2.54223,-2.46507 c 1.62778,-1.5783699 2.93672,-2.5439599 3.63895,-2.6843999 0.84013,-0.16803 3.74356,0.66292 12.40984,3.5516299 9.35954,3.11981 11.4398,3.93204 12.04679,4.7037 0.67887,0.86305 0.72524,1.30794 0.62075,5.95596 l -0.11293,5.02324 -5.73264,5.76984 -5.73263,5.76984 v 1.80494 c 0,0.99272 -0.16745,2.25184 -0.37211,2.79805 -0.42234,1.1272 -29.27836,30.22798 -30.74301,31.00379 -0.52395,0.27753 -1.3291,0.50459 -1.78924,0.50459 -1.31201,0 -4.00189,-1.02953 -4.69716,-1.79779 -0.62132,-0.68655 -0.66789,-0.66101 -2.98165,1.63502 -2.86483,2.84288 -3.89398,3.08839 -7.39461,1.76405 z m 6.79212,-4.33531 c 1.74542,-1.69774 3.40428,-3.64243 3.68636,-4.32153 0.55604,-1.33862 11.61313,-12.7 12.35987,-12.7 1.05327,0 0.11933,1.16265 -5.37585,6.69238 l -5.82084,5.85741 v 1.97708 1.97708 l 1.41826,0.56747 c 0.78003,0.31212 1.69354,0.56748 2.03002,0.56748 0.33648,0 7.35796,-6.74713 15.60328,-14.99362 l 14.9915,-14.99361 0.11521,-4.95873 c 0.0835,-3.59399 0.22915,-4.92129 0.52917,-4.82274 0.22768,0.0748 0.49333,0.96579 0.59034,1.98001 l 0.17639,1.84404 5.20347,-5.24929 5.20348,-5.24929 v -4.25186 c 0,-2.98037 -0.13187,-4.35611 -0.44098,-4.60048 -0.435,-0.34391 -21.6767,-7.4988799 -22.26269,-7.4988799 -0.16615,0 -1.48881,1.1509399 -2.93925,2.5576399 l -2.63717,2.55764 -10.25791,0.10372 -10.2579,0.10372 -5.27937,5.18795 c -2.90365,2.85337 -5.4977,5.69878 -5.76455,6.32314 -0.70709,1.65439 -0.63105,4.54152 0.13967,5.30299 0.34366,0.33955 1.54324,0.92401 2.66573,1.29879 l 2.04087,0.68142 5.43288,-5.4244 c 4.42343,-4.41652 5.47788,-5.30713 5.67507,-4.79328 0.1911,0.49802 -3.74874,4.62457 -18.68195,19.56728 l -18.92412,18.93616 0.005,2.28542 c 0.003,1.25698 0.13834,2.49507 0.30081,2.75131 0.32393,0.51088 4.64299,2.17994 5.64107,2.17994 0.81569,0 2.51939,-1.7915 2.51939,-2.64923 0,-0.74937 17.50863,-18.51743 18.24706,-18.51743 0.24759,0 0.45017,0.19439 0.45017,0.43199 0,0.2376 -3.96875,4.41195 -8.81945,9.27632 l -8.81944,8.84432 v 2.49854 c 0,1.6752 0.15796,2.62965 0.47937,2.89639 0.70888,0.58832 4.4255,1.80522 5.51346,1.80522 1.22873,0 6.00161,-4.79505 6.00161,-6.02948 0,-0.5878 2.12254,-2.94356 7.66232,-8.50427 4.21427,-4.23019 7.86552,-7.69126 8.11389,-7.69126 0.24836,0 0.45157,0.1938 0.45157,0.43067 0,0.23686 -3.42024,3.86382 -7.60053,8.05991 l -7.60054,7.62924 0.10401,2.78765 0.104,2.78765 2.11667,0.77314 c 1.16417,0.42523 2.25617,0.78258 2.42668,0.79411 0.1705,0.0115 1.73808,-1.36809 3.4835,-3.06584 z"
       id="path8461"
       inkscape:connector-curvature="0"
       sodipodi:nodetypes="ccccssscscsccsccscccccscccsccscscccscccccsscscccccscsscccsccccscscccssssccscssssscccccccc" />
  </g>
</svg>
