<?xml version="1.0" encoding="UTF-8" standalone="no"?>
<!-- Created with Inkscape (http://www.inkscape.org/) -->

<svg
   xmlns:dc="http://purl.org/dc/elements/1.1/"
   xmlns:cc="http://creativecommons.org/ns#"
   xmlns:rdf="http://www.w3.org/1999/02/22-rdf-syntax-ns#"
   xmlns:svg="http://www.w3.org/2000/svg"
   xmlns="http://www.w3.org/2000/svg"
   xmlns:sodipodi="http://sodipodi.sourceforge.net/DTD/sodipodi-0.dtd"
   xmlns:inkscape="http://www.inkscape.org/namespaces/inkscape"
   width="70.599007mm"
   height="64.04834mm"
   viewBox="0 0 70.599007 64.04834"
   version="1.1"
   id="svg8"
   inkscape:version="0.92.4 (5da689c313, 2019-01-14)"
   sodipodi:docname="scissors.svg">
  <defs
     id="defs2" />
  <sodipodi:namedview
     id="base"
     pagecolor="#ffffff"
     bordercolor="#666666"
     borderopacity="1.0"
     inkscape:pageopacity="0.0"
     inkscape:pageshadow="2"
     inkscape:zoom="1.4142136"
     inkscape:cx="300.44514"
     inkscape:cy="24.469527"
     inkscape:document-units="mm"
     inkscape:current-layer="layer1"
     showgrid="false"
     fit-margin-top="0"
     fit-margin-left="0"
     fit-margin-right="0"
     fit-margin-bottom="0"
     showguides="true"
     inkscape:guide-bbox="true"
     inkscape:window-width="3840"
     inkscape:window-height="2107"
     inkscape:window-x="-8"
     inkscape:window-y="-8"
     inkscape:window-maximized="1">
    <sodipodi:guide
       position="167.84527,78.734485"
       orientation="1,0"
       id="guide8463"
       inkscape:locked="false" />
  </sodipodi:namedview>
  <metadata
     id="metadata5">
    <rdf:RDF>
      <cc:Work
         rdf:about="">
        <dc:format>image/svg+xml</dc:format>
        <dc:type
           rdf:resource="http://purl.org/dc/dcmitype/StillImage" />
        <dc:title></dc:title>
      </cc:Work>
    </rdf:RDF>
  </metadata>
  <g
     inkscape:label="Layer 1"
     inkscape:groupmode="layer"
     id="layer1"
     transform="translate(-6.7273472,-7.1357756)">
    <path
       style="fill:#000000;stroke-width:0.99999994"
       d="m 31.245407,67.979723 c -5.43278,-1.83454 -10.55585,-3.59086 -11.3846,-3.90294 -1.72474,-0.64949 -2.55013,-1.90273 -2.55013,-3.87205 0,-0.97522 -0.25644,-1.52664 -1.05833,-2.27573 -0.98549,-0.92058 -1.05833,-1.16262 -1.05833,-3.51661 0,-2.43214 -0.0468,-2.57214 -1.23473,-3.69248 -1.23402,-1.16383 -1.23472,-1.16631 -1.23472,-4.35076 0,-3.17107 -0.006,-3.19215 -1.23472,-4.42098 -0.74693,-0.74693 -1.23472,-1.58018 -1.23472,-2.10914 0,-0.64115 -0.2855298,-0.9927 -1.0702898,-1.31776 -1.94784,-0.80682 -2.45749,-1.86217 -2.45749,-5.08883 0,-2.57548 0.10786,-3.04876 1.01424,-4.45034 1.34741,-2.08356 10.8960598,-11.47388 12.1534698,-11.95195 0.61963,-0.23559 4.89128,-0.37615 11.43119,-0.37615 h 10.44186 l 4.44004,-4.36709 c 2.44202,-2.4018999 4.78679,-4.5450299 5.21059,-4.7624999 0.98891,-0.50745 9.25564,-0.5223 10.58356,-0.019 1.31924,0.5 13.73839,12.8436899 14.60315,14.5144099 0.88778,1.71522 0.97986,8.74976 0.14082,10.75787 -0.31584,0.75591 -2.78336,3.55968 -5.99722,6.81445 l -5.46059,5.53009 v 1.8348 c 0,1.00914 -0.22766,2.26348 -0.50591,2.78742 -0.27824,0.52395 -5.0929,5.52814 -10.69923,11.12044 -9.43566,9.41205 -10.29616,10.17832 -11.57674,10.30909 -1.06195,0.10844 -3.6786,-0.63377 -11.26117,-3.19425 z m 21.61562,-9.09438 10.31077,-10.33256 v -4.63968 c 0,-3.02363 0.13661,-4.72411 0.39221,-4.88208 0.57998,-0.35845 1.00737,0.54244 1.01349,2.13631 l 0.005,1.40639 4.92487,-4.91544 c 2.70868,-2.7035 5.10429,-5.3486 5.32358,-5.87802 0.24323,-0.5872 0.35187,-2.48929 0.2786,-4.87757 l -0.1201,-3.915 -6.89735,-6.87101 -6.89735,-6.8710099 h -4.35752 -4.35751 l -4.00277,3.9492299 c -2.20153,2.17209 -4.00278,4.06839 -4.00278,4.21401 0,0.14562 0.71678,0.31315 1.59284,0.37229 0.87606,0.0591 1.59063,0.26628 1.58793,0.4603 -0.003,0.2259 -4.88978,0.41622 -13.58629,0.52917 l -13.58138,0.17639 -5.72649,5.72685 -5.7264798,5.72685 -0.13161,2.60622 c -0.12137,2.40346 -0.0678,2.65091 0.68871,3.18078 1.4660998,1.0269 1.7216598,0.76837 1.7216598,-1.74167 0,-1.27394 0.17634,-2.663 0.39186,-3.08681 0.6003,-1.18042 6.02424,-6.60737 6.98162,-6.98549 0.67523,-0.26667 2.2677,0.13896 7.8493,1.99938 4.70826,1.56932 7.00222,2.49768 7.00222,2.83377 0,0.27491 -0.12402,0.49984 -0.2756,0.49984 -0.15159,0 -3.12319,-0.9525 -6.60357,-2.11667 -3.48037,-1.16416 -6.66086,-2.11666 -7.06774,-2.11666 -0.46789,0 -1.93056,1.21426 -3.97977,3.30387 l -3.23999,3.30387 v 3.72283 c 0,2.04756 0.093,3.96528 0.20675,4.26159 0.13166,0.34313 4.87142,2.09365 13.05277,4.82073 7.06532,2.35508 12.84604,4.41813 12.84604,4.58455 0,0.16643 -0.13599,0.38663 -0.30219,0.48935 -0.1662,0.10272 -5.28306,-1.47541 -11.37078,-3.50696 -6.08773,-2.03155 -11.26987,-3.69372 -11.51587,-3.69372 -0.326,0 -0.44727,0.81082 -0.44727,2.99048 0,2.71888 0.0721,3.03559 0.79375,3.48718 0.43656,0.27319 5.6738,2.11519 11.6383,4.09333 5.96451,1.97814 10.94134,3.75321 11.05963,3.94462 0.1183,0.1914 0.11148,0.4516 -0.0152,0.57823 -0.16901,0.16901 -16.37675,-4.98531 -20.58245,-6.54555 -0.35421,-0.1314 -0.43375,0.41694 -0.35278,2.432 l 0.10455,2.60165 10.49514,3.5269 c 6.29491,2.1154 10.49514,3.70372 10.49514,3.96875 0,0.24302 -0.20194,0.44185 -0.44875,0.44185 -0.24682,0 -4.48988,-1.34937 -9.42903,-2.99861 -4.93915,-1.64923 -9.02346,-2.99861 -9.07625,-2.99861 -0.25437,0 -0.044,2.71096 0.24598,3.16956 0.30139,0.47666 20.98807,7.67364 22.24381,7.73872 0.29544,0.0153 5.177,-4.62182 10.84792,-10.30472 z m -26.90729,-22.07885 c -4.25235,-1.44866 -6.03041,-2.21417 -6.11129,-2.63112 -0.0627,-0.32342 -0.0578,-0.58803 0.011,-0.58803 0.0688,0 2.95772,0.9475 6.41983,2.10555 4.37608,1.46378 6.46951,2.0095 6.86814,1.79041 0.31538,-0.17333 1.36716,-1.12646 2.3373,-2.11807 l 1.76389,-1.80293 0.17639,-4.83817 c 0.10473,-2.87268 0.3197,-4.83818 0.52916,-4.83818 0.50208,0 0.65104,8.90826 0.16845,10.07334 -0.61088,1.4748 -3.91631,4.52814 -5.11005,4.72034 -0.70975,0.11427 -3.02058,-0.49946 -7.05284,-1.87314 z"
       id="path8461"
       inkscape:connector-curvature="0"
       sodipodi:nodetypes="ccscscscscsccscsccccscscscccccsccccccccccccsccscccscsccssscsscscsssssscsccccccsscsccccccsccccsssccc" />
  </g>
</svg>
