<?xml version="1.0" encoding="UTF-8" standalone="no"?>
<!-- Created with Inkscape (http://www.inkscape.org/) -->

<svg
   xmlns:dc="http://purl.org/dc/elements/1.1/"
   xmlns:cc="http://creativecommons.org/ns#"
   xmlns:rdf="http://www.w3.org/1999/02/22-rdf-syntax-ns#"
   xmlns:svg="http://www.w3.org/2000/svg"
   xmlns="http://www.w3.org/2000/svg"
   xmlns:sodipodi="http://sodipodi.sourceforge.net/DTD/sodipodi-0.dtd"
   xmlns:inkscape="http://www.inkscape.org/namespaces/inkscape"
   width="256.44855mm"
   height="71.957268mm"
   viewBox="0 0 256.44855 71.957268"
   version="1.1"
   id="svg8"
   inkscape:version="0.92.4 (5da689c313, 2019-01-14)"
   sodipodi:docname="rock_paper_scissors.svg">
  <defs
     id="defs2" />
  <sodipodi:namedview
     id="base"
     pagecolor="#ffffff"
     bordercolor="#666666"
     borderopacity="1.0"
     inkscape:pageopacity="0.0"
     inkscape:pageshadow="2"
     inkscape:zoom="1.979899"
     inkscape:cx="607.89274"
     inkscape:cy="-11.528344"
     inkscape:document-units="mm"
     inkscape:current-layer="layer1"
     showgrid="false"
     fit-margin-top="0"
     fit-margin-left="0"
     fit-margin-right="0"
     fit-margin-bottom="0"
     showguides="true"
     inkscape:guide-bbox="true"
     inkscape:window-width="3840"
     inkscape:window-height="2107"
     inkscape:window-x="-8"
     inkscape:window-y="-8"
     inkscape:window-maximized="1">
    <sodipodi:guide
       position="167.84527,86.595327"
       orientation="1,0"
       id="guide8463"
       inkscape:locked="false" />
  </sodipodi:namedview>
  <metadata
     id="metadata5">
    <rdf:RDF>
      <cc:Work
         rdf:about="">
        <dc:format>image/svg+xml</dc:format>
        <dc:type
           rdf:resource="http://purl.org/dc/dcmitype/StillImage" />
        <dc:title></dc:title>
      </cc:Work>
    </rdf:RDF>
  </metadata>
  <g
     inkscape:label="Layer 1"
     inkscape:groupmode="layer"
     id="layer1"
     transform="translate(-6.7273472,-7.0876852)">
    <path
       style="fill:#000000;stroke-width:0.99999994"
       d="m 101.84601,78.083093 c -3.781433,-1.30345 -4.101993,-1.75883 -4.101993,-5.82717 0,-2.40583 0.14799,-3.45714 0.578,-4.10606 0.3179,-0.47973 2.644113,-2.96251 5.169363,-5.51728 l 4.59136,-4.64504 -0.61317,-1.29215 c -0.42762,-0.90116 -0.57742,-1.9243 -0.49505,-3.3813 0.0726,-1.28406 -0.0229,-2.0889 -0.24789,-2.08851 -0.2013,3.6e-4 -2.73535,0.7944 -5.63122,1.76454 -2.895873,0.97013 -5.833983,1.76388 -6.529133,1.76388 -0.69514,0 -2.60609,-0.44969 -4.24655,-0.99932 -4.03177,-1.35082 -4.57016,-2.11405 -4.57016,-6.4787 0,-3.40555 0.48778,-4.8918 1.8436,-5.61741 0.42788,-0.22899 4.91092,-1.79467 9.96232,-3.47928 l 9.184363,-3.06293 0.22383,-2.47492 c 0.12311,-1.3612 0.3197,-2.77679 0.43687,-3.14576 0.11717,-0.36896 2.88619,-3.34044 6.15338,-6.60327 4.91105,-4.9045 6.18013,-5.98804 7.32424,-6.25339 0.76115,-0.17653 4.08524,-0.32475 7.38688,-0.32938 l 6.00297,-0.008 4.0512,-4.08157 c 2.22815,-2.2448699 4.47986,-4.3086199 5.00381,-4.5861099 1.44843,-0.76714 10.04345,-0.71126 11.22791,0.073 1.72416,1.14159 13.45998,13.0329599 14.12605,14.3132799 0.55711,1.07087 0.68092,2.04493 0.68092,5.35689 0,2.22642 -0.1665,4.49494 -0.37,5.04114 -0.2035,0.54621 -2.84476,3.47746 -5.86947,6.51388 l -5.49947,5.52078 -0.23163,2.41672 c -0.12739,1.3292 -0.41204,2.73423 -0.63255,3.12228 -0.2205,0.38806 -4.97595,5.25896 -10.56765,10.82422 -7.07932,7.04585 -10.48451,10.19686 -11.21316,10.37615 -0.80813,0.19884 -2.65543,-0.27739 -8.11188,-2.09121 l -7.06543,-2.34869 -5.82286,5.78134 c -3.20256,3.17973 -6.1696,5.95706 -6.59341,6.17185 -1.15293,0.5843 -2.46123,0.43725 -5.53439,-0.62207 z m 16.26114,-12.82414 c 9.31532,-9.3122 11.81366,-11.63038 12.16049,-11.28354 0.34683,0.34683 -0.23907,1.11491 -2.85183,3.73859 -1.8086,1.81614 -3.15244,3.37993 -2.98632,3.47507 0.16611,0.0951 1.61171,0.60422 3.21244,1.13127 1.60073,0.52705 2.91042,1.09462 2.91042,1.26126 0,0.75859 -0.96171,0.67025 -4.10556,-0.37713 l -3.38262,-1.12692 -1.26229,1.26229 c -0.94112,0.94113 -1.13292,1.31095 -0.75383,1.45355 0.27966,0.1052 3.34606,1.13874 6.81423,2.29677 4.40051,1.46934 6.47901,2.00966 6.87917,1.78827 0.31537,-0.17448 5.05809,-4.81934 10.53937,-10.32192 l 9.96598,-10.00467 v -4.83642 c 0,-4.06385 0.0845,-4.83642 0.52917,-4.83642 0.39981,0 0.52916,0.43118 0.52916,1.76389 0,0.97014 0.12615,1.76389 0.28033,1.76389 0.62887,0 10.2598,-10.10724 10.48389,-11.00238 0.13056,-0.52152 0.18296,-2.6286 0.11644,-4.68239 l -0.12093,-3.73416 -6.89736,-6.87109 -6.89735,-6.8710899 h -4.50706 -4.50705 l -4.06556,3.9687499 -4.06556,3.96875 1.70857,0.17639 c 1.26027,0.13011 1.7393,0.33837 1.82569,0.79375 0.10923,0.57574 -0.53186,0.61736 -9.50972,0.61736 h -9.62685 l -5.56846,5.56846 -5.56847,5.56846 v 2.69905 2.69905 l 7.49653,-2.53487 7.49653,-2.53487 0.10431,-2.38125 c 0.0789,-1.80042 0.22946,-2.38125 0.61736,-2.38125 0.39679,0 0.51305,0.52489 0.51305,2.31625 0,1.27393 -0.15693,2.60948 -0.34874,2.96788 -0.25239,0.47158 -5.24789,2.27965 -18.07986,6.54379 -9.752123,3.2407 -18.088313,6.11569 -18.524873,6.38887 -0.71977,0.4504 -0.79375,0.77032 -0.79375,3.4325 0,2.35672 0.12177,3.04147 0.61736,3.47154 0.71173,0.61763 4.81704,2.04306 5.88411,2.04306 0.39602,0 6.520703,-1.93118 13.610413,-4.29152 13.84929,-4.61075 14.81312,-4.79635 14.81312,-2.85254 0,0.7848 -2.05703,3.0169 -11.46528,12.44107 l -11.465283,11.48468 v 2.70084 c 0,1.74482 0.153363,2.80185 0.433243,2.98623 0.72168,0.47543 4.63393,1.81594 5.38565,1.84536 0.47237,0.0185 4.55666,-3.82421 12.42758,-11.69251 z m -4.30347,-11.57404 c 1.93347,-1.94654 2.77941,-3.05037 2.70358,-3.52777 -0.0834,-0.52521 0.0917,-0.6948 0.7176,-0.6948 0.8709,0 4.83956,-3.66664 4.42134,-4.08486 -0.12197,-0.12196 -2.49391,0.52353 -5.271,1.43443 -6.53363,2.14308 -6.98952,2.56559 -6.98952,6.47775 0,1.51683 0.10584,2.8637 0.23519,2.99305 0.61703,0.61703 1.5895,0.0131 4.18281,-2.5978 z m 89.77368,22.42593 c -2.11113,-0.79866 -3.22322,-1.64124 -3.63299,-2.75252 -0.10049,-0.27252 -0.73986,0.11771 -1.70352,1.03973 -0.84846,0.81178 -1.9443,1.57429 -2.43519,1.69446 -1.36095,0.33313 -6.61035,-1.44683 -7.81263,-2.64911 -0.54793,-0.54793 -0.99623,-1.24657 -0.99623,-1.55254 0,-0.395 -0.34008,-0.5563 -1.17293,-0.5563 -0.98492,0 -4.20989,-0.93814 -6.68942,-1.94594 -1.0783,-0.43827 -1.66265,-2.09587 -1.66265,-4.71635 0,-1.3552 0.16614,-2.9109 0.36921,-3.45711 0.20306,-0.5462 6.01667,-6.64877 12.91912,-13.56126 l 12.54991,-12.56817 -1.54204,-0.51181 c -2.26337,-0.75123 -3.12953,-2.20402 -3.12953,-5.24912 0,-1.31687 0.1665,-2.84121 0.37,-3.38741 0.42408,-1.13826 10.96268,-11.89619 12.40067,-12.65876 0.76041,-0.40325 2.92126,-0.50518 10.70913,-0.50518 h 9.75651 l 2.54223,-2.46507 c 1.62778,-1.5783699 2.93672,-2.5439599 3.63895,-2.6843999 0.84013,-0.16803 3.74356,0.66292 12.40984,3.5516299 9.35954,3.11981 11.4398,3.93204 12.04679,4.7037 0.67887,0.86305 0.72524,1.30794 0.62075,5.95596 l -0.11293,5.02324 -5.73264,5.76984 -5.73263,5.76984 v 1.80494 c 0,0.99272 -0.16745,2.25184 -0.37211,2.79805 -0.42234,1.1272 -29.27836,30.22798 -30.74301,31.00379 -0.52395,0.27753 -1.3291,0.50459 -1.78924,0.50459 -1.31201,0 -4.00189,-1.02953 -4.69716,-1.79779 -0.62132,-0.68655 -0.66789,-0.66101 -2.98165,1.63502 -2.86483,2.84288 -3.89398,3.08839 -7.39461,1.76405 z m 6.79212,-4.33531 c 1.74542,-1.69774 3.40428,-3.64243 3.68636,-4.32153 0.55604,-1.33862 11.61313,-12.7 12.35987,-12.7 1.05327,0 0.11933,1.16265 -5.37585,6.69238 l -5.82084,5.85741 v 1.97708 1.97708 l 1.41826,0.56747 c 0.78003,0.31212 1.69354,0.56748 2.03002,0.56748 0.33648,0 7.35796,-6.74713 15.60328,-14.99362 l 14.9915,-14.99361 0.11521,-4.95873 c 0.0835,-3.59399 0.22915,-4.92129 0.52917,-4.82274 0.22768,0.0748 0.49333,0.96579 0.59034,1.98001 l 0.17639,1.84404 5.20347,-5.24929 5.20348,-5.24929 v -4.25186 c 0,-2.98037 -0.13187,-4.35611 -0.44098,-4.60048 -0.435,-0.34391 -21.6767,-7.4988799 -22.26269,-7.4988799 -0.16615,0 -1.48881,1.1509399 -2.93925,2.5576399 l -2.63717,2.55764 -10.25791,0.10372 -10.2579,0.10372 -5.27937,5.18795 c -2.90365,2.85337 -5.4977,5.69878 -5.76455,6.32314 -0.70709,1.65439 -0.63105,4.54152 0.13967,5.30299 0.34366,0.33955 1.54324,0.92401 2.66573,1.29879 l 2.04087,0.68142 5.43288,-5.4244 c 4.42343,-4.41652 5.47788,-5.30713 5.67507,-4.79328 0.1911,0.49802 -3.74874,4.62457 -18.68195,19.56728 l -18.92412,18.93616 0.005,2.28542 c 0.003,1.25698 0.13834,2.49507 0.30081,2.75131 0.32393,0.51088 4.64299,2.17994 5.64107,2.17994 0.81569,0 2.51939,-1.7915 2.51939,-2.64923 0,-0.74937 17.50863,-18.51743 18.24706,-18.51743 0.24759,0 0.45017,0.19439 0.45017,0.43199 0,0.2376 -3.96875,4.41195 -8.81945,9.27632 l -8.81944,8.84432 v 2.49854 c 0,1.6752 0.15796,2.62965 0.47937,2.89639 0.70888,0.58832 4.4255,1.80522 5.51346,1.80522 1.22873,0 6.00161,-4.79505 6.00161,-6.02948 0,-0.5878 2.12254,-2.94356 7.66232,-8.50427 4.21427,-4.23019 7.86552,-7.69126 8.11389,-7.69126 0.24836,0 0.45157,0.1938 0.45157,0.43067 0,0.23686 -3.42024,3.86382 -7.60053,8.05991 l -7.60054,7.62924 0.10401,2.78765 0.104,2.78765 2.11667,0.77314 c 1.16417,0.42523 2.25617,0.78258 2.42668,0.79411 0.1705,0.0115 1.73808,-1.36809 3.4835,-3.06584 z M 31.245407,67.979723 c -5.43278,-1.83454 -10.55585,-3.59086 -11.3846,-3.90294 -1.72474,-0.64949 -2.55013,-1.90273 -2.55013,-3.87205 0,-0.97522 -0.25644,-1.52664 -1.05833,-2.27573 -0.98549,-0.92058 -1.05833,-1.16262 -1.05833,-3.51661 0,-2.43214 -0.0468,-2.57214 -1.23473,-3.69248 -1.23402,-1.16383 -1.23472,-1.16631 -1.23472,-4.35076 0,-3.17107 -0.006,-3.19215 -1.23472,-4.42098 -0.74693,-0.74693 -1.23472,-1.58018 -1.23472,-2.10914 0,-0.64115 -0.2855298,-0.9927 -1.0702898,-1.31776 -1.94784,-0.80682 -2.45749,-1.86217 -2.45749,-5.08883 0,-2.57548 0.10786,-3.04876 1.01424,-4.45034 1.34741,-2.08356 10.8960598,-11.47388 12.1534698,-11.95195 0.61963,-0.23559 4.89128,-0.37615 11.43119,-0.37615 h 10.44186 l 4.44004,-4.36709 c 2.44202,-2.4018999 4.78679,-4.5450299 5.21059,-4.7624999 0.98891,-0.50745 9.25564,-0.5223 10.58356,-0.019 1.31924,0.5 13.73839,12.8436899 14.60315,14.5144099 0.88778,1.71522 0.97986,8.74976 0.14082,10.75787 -0.31584,0.75591 -2.78336,3.55968 -5.99722,6.81445 l -5.46059,5.53009 v 1.8348 c 0,1.00914 -0.22766,2.26348 -0.50591,2.78742 -0.27824,0.52395 -5.0929,5.52814 -10.69923,11.12044 -9.43566,9.41205 -10.29616,10.17832 -11.57674,10.30909 -1.06195,0.10844 -3.6786,-0.63377 -11.26117,-3.19425 z m 21.61562,-9.09438 10.31077,-10.33256 v -4.63968 c 0,-3.02363 0.13661,-4.72411 0.39221,-4.88208 0.57998,-0.35845 1.00737,0.54244 1.01349,2.13631 l 0.005,1.40639 4.92487,-4.91544 c 2.70868,-2.7035 5.10429,-5.3486 5.32358,-5.87802 0.24323,-0.5872 0.35187,-2.48929 0.2786,-4.87757 l -0.1201,-3.915 -6.89735,-6.87101 -6.89735,-6.8710099 h -4.35752 -4.35751 l -4.00277,3.9492299 c -2.20153,2.17209 -4.00278,4.06839 -4.00278,4.21401 0,0.14562 0.71678,0.31315 1.59284,0.37229 0.87606,0.0591 1.59063,0.26628 1.58793,0.4603 -0.003,0.2259 -4.88978,0.41622 -13.58629,0.52917 l -13.58138,0.17639 -5.72649,5.72685 -5.7264798,5.72685 -0.13161,2.60622 c -0.12137,2.40346 -0.0678,2.65091 0.68871,3.18078 1.4660998,1.0269 1.7216598,0.76837 1.7216598,-1.74167 0,-1.27394 0.17634,-2.663 0.39186,-3.08681 0.6003,-1.18042 6.02424,-6.60737 6.98162,-6.98549 0.67523,-0.26667 2.2677,0.13896 7.8493,1.99938 4.70826,1.56932 7.00222,2.49768 7.00222,2.83377 0,0.27491 -0.12402,0.49984 -0.2756,0.49984 -0.15159,0 -3.12319,-0.9525 -6.60357,-2.11667 -3.48037,-1.16416 -6.66086,-2.11666 -7.06774,-2.11666 -0.46789,0 -1.93056,1.21426 -3.97977,3.30387 l -3.23999,3.30387 v 3.72283 c 0,2.04756 0.093,3.96528 0.20675,4.26159 0.13166,0.34313 4.87142,2.09365 13.05277,4.82073 7.06532,2.35508 12.84604,4.41813 12.84604,4.58455 0,0.16643 -0.13599,0.38663 -0.30219,0.48935 -0.1662,0.10272 -5.28306,-1.47541 -11.37078,-3.50696 -6.08773,-2.03155 -11.26987,-3.69372 -11.51587,-3.69372 -0.326,0 -0.44727,0.81082 -0.44727,2.99048 0,2.71888 0.0721,3.03559 0.79375,3.48718 0.43656,0.27319 5.6738,2.11519 11.6383,4.09333 5.96451,1.97814 10.94134,3.75321 11.05963,3.94462 0.1183,0.1914 0.11148,0.4516 -0.0152,0.57823 -0.16901,0.16901 -16.37675,-4.98531 -20.58245,-6.54555 -0.35421,-0.1314 -0.43375,0.41694 -0.35278,2.432 l 0.10455,2.60165 10.49514,3.5269 c 6.29491,2.1154 10.49514,3.70372 10.49514,3.96875 0,0.24302 -0.20194,0.44185 -0.44875,0.44185 -0.24682,0 -4.48988,-1.34937 -9.42903,-2.99861 -4.93915,-1.64923 -9.02346,-2.99861 -9.07625,-2.99861 -0.25437,0 -0.044,2.71096 0.24598,3.16956 0.30139,0.47666 20.98807,7.67364 22.24381,7.73872 0.29544,0.0153 5.177,-4.62182 10.84792,-10.30472 z m -26.90729,-22.07885 c -4.25235,-1.44866 -6.03041,-2.21417 -6.11129,-2.63112 -0.0627,-0.32342 -0.0578,-0.58803 0.011,-0.58803 0.0688,0 2.95772,0.9475 6.41983,2.10555 4.37608,1.46378 6.46951,2.0095 6.86814,1.79041 0.31538,-0.17333 1.36716,-1.12646 2.3373,-2.11807 l 1.76389,-1.80293 0.17639,-4.83817 c 0.10473,-2.87268 0.3197,-4.83818 0.52916,-4.83818 0.50208,0 0.65104,8.90826 0.16845,10.07334 -0.61088,1.4748 -3.91631,4.52814 -5.11005,4.72034 -0.70975,0.11427 -3.02058,-0.49946 -7.05284,-1.87314 z"
       id="path8461"
       inkscape:connector-curvature="0"
       sodipodi:nodetypes="cscscccccscscscscssccccccscccccscccscccscccssccscscccsssscccccccccccscccccccsssccsscscsscsscsccsccsccccccssscscsccsccscccccscccsccscscccscccccsscscccccscsscccsccccscscccssssccscsssssccccccccccscscscscsccscsccccscscscccccsccccccccccccsccscccscsccssscsscscsssssscsccccccsscsccccccsccccsssccc" />
  </g>
</svg>
