<?xml version="1.0" encoding="UTF-8" standalone="no"?>
<!-- Created with Inkscape (http://www.inkscape.org/) -->

<svg
   xmlns:dc="http://purl.org/dc/elements/1.1/"
   xmlns:cc="http://creativecommons.org/ns#"
   xmlns:rdf="http://www.w3.org/1999/02/22-rdf-syntax-ns#"
   xmlns:svg="http://www.w3.org/2000/svg"
   xmlns="http://www.w3.org/2000/svg"
   xmlns:sodipodi="http://sodipodi.sourceforge.net/DTD/sodipodi-0.dtd"
   xmlns:inkscape="http://www.inkscape.org/namespaces/inkscape"
   width="83.608345mm"
   height="71.957268mm"
   viewBox="0 0 83.608346 71.957268"
   version="1.1"
   id="svg8"
   inkscape:version="0.92.4 (5da689c313, 2019-01-14)"
   sodipodi:docname="scissors.svg">
  <defs
     id="defs2" />
  <sodipodi:namedview
     id="base"
     pagecolor="#ffffff"
     bordercolor="#666666"
     borderopacity="1.0"
     inkscape:pageopacity="0.0"
     inkscape:pageshadow="2"
     inkscape:zoom="1.979899"
     inkscape:cx="197.35169"
     inkscape:cy="-11.528348"
     inkscape:document-units="mm"
     inkscape:current-layer="layer1"
     showgrid="false"
     fit-margin-top="0"
     fit-margin-left="0"
     fit-margin-right="0"
     fit-margin-bottom="0"
     showguides="true"
     inkscape:guide-bbox="true"
     inkscape:window-width="3840"
     inkscape:window-height="2107"
     inkscape:window-x="-8"
     inkscape:window-y="-8"
     inkscape:window-maximized="1">
    <sodipodi:guide
       position="88.82305,86.595327"
       orientation="1,0"
       id="guide8463"
       inkscape:locked="false" />
  </sodipodi:namedview>
  <metadata
     id="metadata5">
    <rdf:RDF>
      <cc:Work
         rdf:about="">
        <dc:format>image/svg+xml</dc:format>
        <dc:type
           rdf:resource="http://purl.org/dc/dcmitype/StillImage" />
        <dc:title></dc:title>
      </cc:Work>
    </rdf:RDF>
  </metadata>
  <g
     inkscape:label="Layer 1"
     inkscape:groupmode="layer"
     id="layer1"
     transform="translate(-85.749567,-7.0876852)">
    <path
       style="fill:#000000;stroke-width:0.99999994"
       d="m 101.84601,78.083093 c -3.781433,-1.30345 -4.101993,-1.75883 -4.101993,-5.82717 0,-2.40583 0.14799,-3.45714 0.578,-4.10606 0.3179,-0.47973 2.644113,-2.96251 5.169363,-5.51728 l 4.59136,-4.64504 -0.61317,-1.29215 c -0.42762,-0.90116 -0.57742,-1.9243 -0.49505,-3.3813 0.0726,-1.28406 -0.0229,-2.0889 -0.24789,-2.08851 -0.2013,3.6e-4 -2.73535,0.7944 -5.63122,1.76454 -2.895873,0.97013 -5.833983,1.76388 -6.529133,1.76388 -0.69514,0 -2.60609,-0.44969 -4.24655,-0.99932 -4.03177,-1.35082 -4.57016,-2.11405 -4.57016,-6.4787 0,-3.40555 0.48778,-4.8918 1.8436,-5.61741 0.42788,-0.22899 4.91092,-1.79467 9.96232,-3.47928 l 9.184363,-3.06293 0.22383,-2.47492 c 0.12311,-1.3612 0.3197,-2.77679 0.43687,-3.14576 0.11717,-0.36896 2.88619,-3.34044 6.15338,-6.60327 4.91105,-4.9045 6.18013,-5.98804 7.32424,-6.25339 0.76115,-0.17653 4.08524,-0.32475 7.38688,-0.32938 l 6.00297,-0.008 4.0512,-4.08157 c 2.22815,-2.2448699 4.47986,-4.3086199 5.00381,-4.5861099 1.44843,-0.76714 10.04345,-0.71126 11.22791,0.073 1.72416,1.14159 13.45998,13.0329599 14.12605,14.3132799 0.55711,1.07087 0.68092,2.04493 0.68092,5.35689 0,2.22642 -0.1665,4.49494 -0.37,5.04114 -0.2035,0.54621 -2.84476,3.47746 -5.86947,6.51388 l -5.49947,5.52078 -0.23163,2.41672 c -0.12739,1.3292 -0.41204,2.73423 -0.63255,3.12228 -0.2205,0.38806 -4.97595,5.25896 -10.56765,10.82422 -7.07932,7.04585 -10.48451,10.19686 -11.21316,10.37615 -0.80813,0.19884 -2.65543,-0.27739 -8.11188,-2.09121 l -7.06543,-2.34869 -5.82286,5.78134 c -3.20256,3.17973 -6.1696,5.95706 -6.59341,6.17185 -1.15293,0.5843 -2.46123,0.43725 -5.53439,-0.62207 z m 16.26114,-12.82414 c 9.31532,-9.3122 11.81366,-11.63038 12.16049,-11.28354 0.34683,0.34683 -0.23907,1.11491 -2.85183,3.73859 -1.8086,1.81614 -3.15244,3.37993 -2.98632,3.47507 0.16611,0.0951 1.61171,0.60422 3.21244,1.13127 1.60073,0.52705 2.91042,1.09462 2.91042,1.26126 0,0.75859 -0.96171,0.67025 -4.10556,-0.37713 l -3.38262,-1.12692 -1.26229,1.26229 c -0.94112,0.94113 -1.13292,1.31095 -0.75383,1.45355 0.27966,0.1052 3.34606,1.13874 6.81423,2.29677 4.40051,1.46934 6.47901,2.00966 6.87917,1.78827 0.31537,-0.17448 5.05809,-4.81934 10.53937,-10.32192 l 9.96598,-10.00467 v -4.83642 c 0,-4.06385 0.0845,-4.83642 0.52917,-4.83642 0.39981,0 0.52916,0.43118 0.52916,1.76389 0,0.97014 0.12615,1.76389 0.28033,1.76389 0.62887,0 10.2598,-10.10724 10.48389,-11.00238 0.13056,-0.52152 0.18296,-2.6286 0.11644,-4.68239 l -0.12093,-3.73416 -6.89736,-6.87109 -6.89735,-6.8710899 h -4.50706 -4.50705 l -4.06556,3.9687499 -4.06556,3.96875 1.70857,0.17639 c 1.26027,0.13011 1.7393,0.33837 1.82569,0.79375 0.10923,0.57574 -0.53186,0.61736 -9.50972,0.61736 h -9.62685 l -5.56846,5.56846 -5.56847,5.56846 v 2.69905 2.69905 l 7.49653,-2.53487 7.49653,-2.53487 0.10431,-2.38125 c 0.0789,-1.80042 0.22946,-2.38125 0.61736,-2.38125 0.39679,0 0.51305,0.52489 0.51305,2.31625 0,1.27393 -0.15693,2.60948 -0.34874,2.96788 -0.25239,0.47158 -5.24789,2.27965 -18.07986,6.54379 -9.752123,3.2407 -18.088313,6.11569 -18.524873,6.38887 -0.71977,0.4504 -0.79375,0.77032 -0.79375,3.4325 0,2.35672 0.12177,3.04147 0.61736,3.47154 0.71173,0.61763 4.81704,2.04306 5.88411,2.04306 0.39602,0 6.520703,-1.93118 13.610413,-4.29152 13.84929,-4.61075 14.81312,-4.79635 14.81312,-2.85254 0,0.7848 -2.05703,3.0169 -11.46528,12.44107 l -11.465283,11.48468 v 2.70084 c 0,1.74482 0.153363,2.80185 0.433243,2.98623 0.72168,0.47543 4.63393,1.81594 5.38565,1.84536 0.47237,0.0185 4.55666,-3.82421 12.42758,-11.69251 z m -4.30347,-11.57404 c 1.93347,-1.94654 2.77941,-3.05037 2.70358,-3.52777 -0.0834,-0.52521 0.0917,-0.6948 0.7176,-0.6948 0.8709,0 4.83956,-3.66664 4.42134,-4.08486 -0.12197,-0.12196 -2.49391,0.52353 -5.271,1.43443 -6.53363,2.14308 -6.98952,2.56559 -6.98952,6.47775 0,1.51683 0.10584,2.8637 0.23519,2.99305 0.61703,0.61703 1.5895,0.0131 4.18281,-2.5978 z"
       id="path8461"
       inkscape:connector-curvature="0"
       sodipodi:nodetypes="cscscccccscscscscssccccccscccccscccscccscccssccscscccsssscccccccccccscccccccsssccsscscsscsscsccsccscc" />
  </g>
</svg>
